<svg width="60" height="59" viewBox="0 0 60 59" fill="none" xmlns="http://www.w3.org/2000/svg">
<g filter="url(#filter0_d_238_3098)">
<ellipse cx="30" cy="25.5" rx="26" ry="25.5" fill="white"/>
<path d="M39.4851 27.0262C40.2909 26.2707 40.3317 25.005 39.5763 24.1992L27.2654 11.0675C26.5099 10.2616 25.2443 10.2208 24.4384 10.9763C23.6326 11.7317 23.5918 12.9974 24.3472 13.8032L35.2902 25.4759L23.6176 36.4189C22.8117 37.1743 22.7709 38.44 23.5264 39.2458C24.2818 40.0517 25.5475 40.0925 26.3533 39.337L39.4851 27.0262ZM35.7855 27.4929L38.0527 27.566L38.1817 23.5681L35.9145 23.495L35.7855 27.4929Z" fill="#6E6E6E"/>
</g>
<defs>
<filter id="filter0_d_238_3098" x="0" y="0" width="60" height="59" filterUnits="userSpaceOnUse" color-interpolation-filters="sRGB">
<feFlood flood-opacity="0" result="BackgroundImageFix"/>
<feColorMatrix in="SourceAlpha" type="matrix" values="0 0 0 0 0 0 0 0 0 0 0 0 0 0 0 0 0 0 127 0" result="hardAlpha"/>
<feOffset dy="4"/>
<feGaussianBlur stdDeviation="2"/>
<feComposite in2="hardAlpha" operator="out"/>
<feColorMatrix type="matrix" values="0 0 0 0 0 0 0 0 0 0 0 0 0 0 0 0 0 0 0.25 0"/>
<feBlend mode="normal" in2="BackgroundImageFix" result="effect1_dropShadow_238_3098"/>
<feBlend mode="normal" in="SourceGraphic" in2="effect1_dropShadow_238_3098" result="shape"/>
</filter>
</defs>
</svg>
