<svg width="60" height="59" viewBox="0 0 60 59" fill="none" xmlns="http://www.w3.org/2000/svg">
<g filter="url(#filter0_d_238_2769)">
<ellipse cx="30" cy="25.5" rx="26" ry="25.5" transform="rotate(-180 30 25.5)" fill="white" fill-opacity="0.46"/>
<path d="M20.5169 23.9738C19.7111 24.7293 19.6702 25.995 20.4257 26.8008L32.7366 39.9325C33.492 40.7384 34.7577 40.7792 35.5635 40.0237C36.3693 39.2683 36.4102 38.0026 35.6547 37.1968L24.7117 25.5241L36.3844 14.5811C37.1902 13.8257 37.231 12.56 36.4756 11.7542C35.7201 10.9483 34.4545 10.9075 33.6486 11.663L20.5169 23.9738ZM24.2164 23.5071L21.9493 23.434L21.8203 27.4319L24.0874 27.505L24.2164 23.5071Z" fill="#6E6E6E" fill-opacity="0.68"/>
</g>
<defs>
<filter id="filter0_d_238_2769" x="0" y="0" width="60" height="59" filterUnits="userSpaceOnUse" color-interpolation-filters="sRGB">
<feFlood flood-opacity="0" result="BackgroundImageFix"/>
<feColorMatrix in="SourceAlpha" type="matrix" values="0 0 0 0 0 0 0 0 0 0 0 0 0 0 0 0 0 0 127 0" result="hardAlpha"/>
<feOffset dy="4"/>
<feGaussianBlur stdDeviation="2"/>
<feComposite in2="hardAlpha" operator="out"/>
<feColorMatrix type="matrix" values="0 0 0 0 0 0 0 0 0 0 0 0 0 0 0 0 0 0 0.25 0"/>
<feBlend mode="normal" in2="BackgroundImageFix" result="effect1_dropShadow_238_2769"/>
<feBlend mode="normal" in="SourceGraphic" in2="effect1_dropShadow_238_2769" result="shape"/>
</filter>
</defs>
</svg>
