<svg width="31" height="31" viewBox="0 0 31 31" fill="none" xmlns="http://www.w3.org/2000/svg">
<path fill-rule="evenodd" clip-rule="evenodd" d="M19.0257 5.51849C17.9652 4.97279 16.7648 4.6665 15.4993 4.6665C11.5678 4.6665 8.26502 7.62266 7.83086 11.5301L7.50561 14.4573C7.4448 15.0046 7.41664 15.2557 7.37261 15.5005C7.24175 16.228 7.00407 16.9321 6.66728 17.5901C6.55396 17.8115 6.42416 18.0283 6.14085 18.5005L5.26299 19.9636L5.24134 19.9997C4.85688 20.6404 4.53909 21.17 4.3593 21.6035C4.17478 22.0484 4.07595 22.531 4.33523 22.9889C4.59451 23.4468 5.0591 23.6103 5.53557 23.681C5.99979 23.7499 6.61742 23.7499 7.36464 23.7498H7.40672H23.592H23.634C24.3813 23.7499 24.9989 23.7499 25.4631 23.681C25.9396 23.6103 26.4042 23.4468 26.6634 22.9889C26.9227 22.531 26.8239 22.0484 26.6394 21.6035C26.4596 21.17 26.1418 20.6404 25.7574 19.9997L25.7573 19.9996L25.7357 19.9636L24.8578 18.5005C24.5745 18.0283 24.4447 17.8115 24.3314 17.5901C23.9946 16.9321 23.7569 16.228 23.6261 15.5005C23.582 15.2557 23.5539 15.0046 23.4931 14.4573L23.3757 13.4012C23.0614 13.5034 22.7322 13.5725 22.3921 13.6045L22.4992 14.5677L22.5015 14.5886L22.5015 14.5887C22.5594 15.1099 22.5912 15.3958 22.6419 15.6775C22.7902 16.502 23.0595 17.3 23.4412 18.0457C23.5717 18.3006 23.7197 18.5473 23.9896 18.9971L24.0003 19.015L24.8782 20.4781C25.2898 21.1641 25.5677 21.6299 25.7157 21.9866C25.8622 22.34 25.8212 22.4468 25.7932 22.4962C25.7653 22.5456 25.6948 22.6357 25.3164 22.6918C24.9344 22.7485 24.3919 22.7498 23.592 22.7498H7.40672C6.60674 22.7498 6.06427 22.7485 5.68232 22.6918C5.30392 22.6357 5.23338 22.5456 5.20543 22.4962C5.17748 22.4468 5.13647 22.34 5.28302 21.9866C5.43094 21.6299 5.7089 21.1641 6.12048 20.4781L6.99835 19.015L7.00907 18.9971C7.27896 18.5473 7.42699 18.3006 7.55744 18.0457C7.93914 17.3 8.20851 16.502 8.35682 15.6775C8.4075 15.3958 8.43927 15.1099 8.49719 14.5885L8.4972 14.5885L8.4995 14.5677L8.82474 11.6406C9.20263 8.23952 12.0774 5.6665 15.4993 5.6665C16.4956 5.6665 17.4456 5.88462 18.301 6.27777C18.5129 5.99784 18.7562 5.743 19.0257 5.51849ZM20.7696 6.74694C20.4662 6.90437 20.1979 7.12021 19.9798 7.37958C21.1668 8.44275 21.9773 9.9265 22.1712 11.6161C22.5196 11.5876 22.8484 11.49 23.1439 11.337C22.8965 9.5226 22.0285 7.92401 20.7696 6.74694Z" fill="#931158"/>
<path d="M11.757 23.7742C11.9778 24.7355 12.4643 25.585 13.141 26.1908C13.8178 26.7966 14.647 27.125 15.5 27.125C16.353 27.125 17.1822 26.7966 17.8589 26.1908C18.5357 25.585 19.0222 24.7355 19.243 23.7742" stroke="#931158" stroke-linecap="round"/>
<ellipse cx="21.9583" cy="9.04183" rx="2.58333" ry="2.58333" fill="#FF0000"/>
</svg>
