<svg width="24" height="24" viewBox="0 0 24 24" fill="none" xmlns="http://www.w3.org/2000/svg">
<path d="M21.97 18.2627C21.97 18.6173 21.89 18.9817 21.72 19.3363C21.55 19.6908 21.33 20.0257 21.04 20.3409C20.55 20.8728 20.01 21.2569 19.4 21.5031C18.8 21.7494 18.15 21.8774 17.45 21.8774C16.43 21.8774 15.34 21.641 14.19 21.1584C13.04 20.6758 11.89 20.0257 10.75 19.2082C9.6 18.3809 8.51 17.4649 7.47 16.4504C6.44 15.4261 5.51 14.3525 4.68 13.2297C3.86 12.1068 3.2 10.984 2.72 9.87105C2.24 8.74822 2 7.67464 2 6.65031C2 5.98056 2.12 5.34035 2.36 4.74939C2.6 4.14858 2.98 3.59702 3.51 3.10455C4.15 2.48404 4.85 2.17871 5.59 2.17871C5.87 2.17871 6.15 2.23781 6.4 2.356C6.66 2.47419 6.89 2.65148 7.07 2.90756L9.39 6.1283C9.57 6.37453 9.7 6.60107 9.79 6.81775C9.88 7.02459 9.93 7.23142 9.93 7.41856C9.93 7.65494 9.86 7.89133 9.72 8.11786C9.59 8.3444 9.4 8.58078 9.16 8.81717L8.4 9.59526C8.29 9.70361 8.24 9.83165 8.24 9.98924C8.24 10.068 8.25 10.137 8.27 10.2158C8.3 10.2946 8.33 10.3537 8.35 10.4128C8.53 10.7378 8.84 11.1613 9.28 11.6735C9.73 12.1856 10.21 12.7077 10.73 13.2297C11.27 13.7517 11.79 14.2343 12.32 14.6775C12.84 15.1109 13.27 15.4064 13.61 15.5837C13.66 15.6034 13.72 15.6329 13.79 15.6625C13.87 15.692 13.95 15.7019 14.04 15.7019C14.21 15.7019 14.34 15.6428 14.45 15.5344L15.21 14.7957C15.46 14.5495 15.7 14.3623 15.93 14.2442C16.16 14.1063 16.39 14.0373 16.64 14.0373C16.83 14.0373 17.03 14.0767 17.25 14.1654C17.47 14.254 17.7 14.382 17.95 14.5495L21.26 16.8641C21.52 17.0414 21.7 17.2482 21.81 17.4944C21.91 17.7407 21.97 17.9869 21.97 18.2627Z" stroke="#333333" stroke-width="1.5" stroke-miterlimit="10"/>
<path d="M18.5 9.07325C18.5 8.48229 18.03 7.57615 17.33 6.83745C16.69 6.15784 15.84 5.62598 15 5.62598" stroke="#333333" stroke-width="1.5" stroke-linecap="round" stroke-linejoin="round"/>
<path d="M22 9.07325C22 5.26155 18.87 2.17871 15 2.17871" stroke="#333333" stroke-width="1.5" stroke-linecap="round" stroke-linejoin="round"/>
</svg>
