<svg width="39" height="37" viewBox="0 0 39 37" fill="none" xmlns="http://www.w3.org/2000/svg">
<path d="M33.2707 30.8873C33.2707 31.3416 33.1628 31.8084 32.9336 32.2626C32.7044 32.7168 32.4078 33.1458 32.0169 33.5496C31.3563 34.2309 30.6283 34.723 29.8059 35.0384C28.997 35.3538 28.1207 35.5179 27.1769 35.5179C25.8018 35.5179 24.3323 35.215 22.7819 34.5968C21.2315 33.9786 19.6811 33.1458 18.1442 32.0986C16.5938 31.0387 15.1243 29.8653 13.7222 28.5658C12.3335 27.2536 11.0797 25.8783 9.96076 24.44C8.85526 23.0016 7.96546 21.5632 7.31834 20.1375C6.67122 18.6991 6.34766 17.3238 6.34766 16.0117C6.34766 15.1537 6.50944 14.3336 6.833 13.5765C7.15656 12.8069 7.66887 12.1003 8.3834 11.4695C9.24623 10.6746 10.19 10.2834 11.1876 10.2834C11.5651 10.2834 11.9426 10.3592 12.2796 10.5106C12.6301 10.662 12.9402 10.8891 13.1829 11.2171L16.3107 15.3429C16.5533 15.6584 16.7286 15.9486 16.8499 16.2262C16.9713 16.4911 17.0387 16.7561 17.0387 16.9958C17.0387 17.2986 16.9443 17.6014 16.7556 17.8916C16.5803 18.1818 16.3241 18.4846 16.0006 18.7874L14.976 19.7842C14.8277 19.923 14.7603 20.087 14.7603 20.2889C14.7603 20.3898 14.7737 20.4781 14.8007 20.5791C14.8411 20.68 14.8816 20.7557 14.9086 20.8314C15.1512 21.2478 15.5692 21.7903 16.1624 22.4464C16.769 23.1025 17.4162 23.7712 18.1172 24.44C18.8452 25.1087 19.5463 25.7269 20.2608 26.2947C20.9619 26.8498 21.5416 27.2284 21.9999 27.4555C22.0674 27.4807 22.1482 27.5185 22.2426 27.5564C22.3505 27.5943 22.4583 27.6069 22.5797 27.6069C22.8089 27.6069 22.9841 27.5312 23.1324 27.3924L24.157 26.4461C24.4941 26.1307 24.8176 25.8909 25.1277 25.7395C25.4378 25.5629 25.7479 25.4746 26.0849 25.4746C26.3411 25.4746 26.6107 25.525 26.9073 25.6386C27.2039 25.7521 27.514 25.9162 27.851 26.1307L32.3135 29.0957C32.664 29.3228 32.9067 29.5878 33.055 29.9032C33.1898 30.2186 33.2707 30.5341 33.2707 30.8873Z" stroke="white" stroke-width="1.5" stroke-miterlimit="10"/>
<path d="M28.5917 19.1155C28.5917 18.3585 27.958 17.1977 27.0143 16.2514C26.1515 15.3808 25.0055 14.6995 23.873 14.6995" stroke="white" stroke-width="1.5" stroke-linecap="round" stroke-linejoin="round"/>
<path d="M33.3103 19.1155C33.3103 14.2326 29.0905 10.2834 23.873 10.2834" stroke="white" stroke-width="1.5" stroke-linecap="round" stroke-linejoin="round"/>
</svg>
