<svg width="26" height="23" viewBox="0 0 26 23" fill="none" xmlns="http://www.w3.org/2000/svg">
<path d="M20.8 18.4C21.4896 18.4 22.1509 18.6423 22.6385 19.0737C23.1261 19.505 23.4 20.09 23.4 20.7C23.4 21.31 23.1261 21.895 22.6385 22.3263C22.1509 22.7577 21.4896 23 20.8 23C20.1104 23 19.4491 22.7577 18.9615 22.3263C18.4739 21.895 18.2 21.31 18.2 20.7C18.2 19.4235 19.357 18.4 20.8 18.4ZM0 0H4.251L5.473 2.3H24.7C25.0448 2.3 25.3754 2.42116 25.6192 2.63683C25.863 2.85249 26 3.145 26 3.45C26 3.6455 25.935 3.841 25.844 4.025L21.19 11.4655C20.748 12.167 19.89 12.65 18.915 12.65H9.23L8.06 14.5245L8.021 14.6625C8.021 14.7387 8.05524 14.8119 8.11619 14.8658C8.17714 14.9197 8.2598 14.95 8.346 14.95H23.4V17.25H7.8C7.11044 17.25 6.44912 17.0077 5.96152 16.5763C5.47393 16.145 5.2 15.56 5.2 14.95C5.2 14.5475 5.317 14.168 5.512 13.846L7.28 11.0285L2.6 2.3H0V0ZM7.8 18.4C8.48956 18.4 9.15088 18.6423 9.63848 19.0737C10.1261 19.505 10.4 20.09 10.4 20.7C10.4 21.31 10.1261 21.895 9.63848 22.3263C9.15088 22.7577 8.48956 23 7.8 23C7.11044 23 6.44912 22.7577 5.96152 22.3263C5.47393 21.895 5.2 21.31 5.2 20.7C5.2 19.4235 6.357 18.4 7.8 18.4ZM19.5 10.35L23.114 4.6H6.682L9.75 10.35H19.5Z" fill="#931158"/>
</svg>
