<svg width="102" height="98" viewBox="0 0 102 98" fill="none" xmlns="http://www.w3.org/2000/svg">
<path d="M84.7457 38.288C82.3912 32.9753 78.7153 28.2991 74.0408 24.67C69.3662 21.0408 63.8359 18.5696 57.9352 17.4734L63.2655 9.27945L57.8595 6.0332L50.8261 16.8454C43.6618 16.8774 36.6642 18.9253 30.6978 22.7361C24.7315 26.5468 20.0579 31.9535 17.2543 38.288C13.4992 38.3566 9.92193 39.838 7.29151 42.4138C4.66109 44.9895 3.1875 48.454 3.1875 52.0626C3.1875 55.6711 4.66109 59.1356 7.29151 61.7114C9.92193 64.2872 13.4992 65.7686 17.2543 65.8371C20.0697 72.1978 24.7702 77.6223 30.7705 81.4353C36.7708 85.2483 43.806 87.2814 51 87.2814C58.194 87.2814 65.2292 85.2483 71.2295 81.4353C77.2298 77.6223 81.9303 72.1978 84.7457 65.8371C88.5008 65.7686 92.0781 64.2872 94.7085 61.7114C97.3389 59.1356 98.8125 55.6711 98.8125 52.0626C98.8125 48.454 97.3389 44.9895 94.7085 42.4138C92.0781 39.838 88.5008 38.3566 84.7457 38.288ZM90.1549 57.4239C88.6969 58.8566 86.7098 59.6792 84.6246 59.7133L80.4957 59.7887L78.8795 63.4396C76.554 68.6949 72.6708 73.1769 67.7135 76.3275C62.7562 79.478 56.9438 81.1579 51.0001 81.1579C45.0564 81.1579 39.244 79.478 34.2867 76.3275C29.3294 73.1769 25.4463 68.6949 23.1207 63.4396L21.5043 59.7887L17.3755 59.7133C15.2894 59.6758 13.3019 58.8532 11.8404 57.4225C10.3789 55.9918 9.56014 54.0672 9.56014 52.0626C9.56014 50.0579 10.3789 48.1333 11.8404 46.7026C13.3019 45.2719 15.2894 44.4494 17.3755 44.4119L21.5043 44.3365L23.1207 40.6856C25.4463 35.4303 29.3295 30.9484 34.2868 27.7979C39.2441 24.6474 45.0565 22.9676 51.0001 22.9676C56.9438 22.9676 62.7561 24.6474 67.7134 27.7979C72.6707 30.9484 76.5539 35.4303 78.8795 40.6856L80.4957 44.3365L84.6246 44.4119C86.1805 44.4401 87.6937 44.9058 88.9772 45.7513C90.2607 46.5968 91.2583 47.785 91.8466 49.1693C92.435 50.5535 92.5882 52.073 92.2876 53.54C91.9869 55.007 91.2455 56.3573 90.1549 57.4239Z" fill="#931158"/>
<path d="M33.4688 44.4062H41.4375V52.0625H33.4688V44.4062ZM60.5625 44.4062H68.5312V52.0625H60.5625V44.4062ZM51 73.5C53.0929 73.5 55.1654 73.1039 57.099 72.3344C59.0326 71.5649 60.7896 70.437 62.2695 69.0151C63.7494 67.5932 64.9234 65.9051 65.7243 64.0473C66.5253 62.1895 66.9375 60.1984 66.9375 58.1875H35.0625C35.0625 60.1984 35.4747 62.1895 36.2757 64.0473C37.0766 65.9051 38.2506 67.5932 39.7305 69.0151C42.7193 71.8867 46.7731 73.5 51 73.5Z" fill="#931158"/>
</svg>
