<svg width="11" height="11" viewBox="0 0 11 11" fill="none" xmlns="http://www.w3.org/2000/svg">
<path d="M5.5 0C4.77773 0 4.06253 0.137047 3.39524 0.403316C2.72795 0.669585 2.12163 1.05986 1.61091 1.55186C0.579463 2.5455 0 3.89317 0 5.29839C0 6.70361 0.579463 8.05127 1.61091 9.04491C2.12163 9.53691 2.72795 9.92719 3.39524 10.1935C4.06253 10.4597 4.77773 10.5968 5.5 10.5968C6.95869 10.5968 8.35764 10.0386 9.38909 9.04491C10.4205 8.05127 11 6.70361 11 5.29839C11 4.60259 10.8577 3.91361 10.5813 3.27078C10.3049 2.62795 9.89981 2.04386 9.38909 1.55186C8.87837 1.05986 8.27205 0.669585 7.60476 0.403316C6.93747 0.137047 6.22227 0 5.5 0ZM7.81 7.52371L4.95 5.82823V2.64919H5.775V5.40435L8.25 6.83492L7.81 7.52371Z" fill="black"/>
</svg>
