<svg width="32" height="32" viewBox="0 0 32 32" fill="none" xmlns="http://www.w3.org/2000/svg">
<path d="M30.4627 27.412C30.8678 27.817 31.0954 28.3664 31.0954 28.9393C31.0954 29.5122 30.8678 30.0616 30.4627 30.4667C30.0576 30.8717 29.5082 31.0993 28.9354 31.0993C28.3625 31.0993 27.8131 30.8717 27.408 30.4667L15.9997 19.0547L4.58772 30.4631C4.18265 30.8681 3.63325 31.0957 3.06038 31.0957C2.48752 31.0957 1.93811 30.8681 1.53304 30.4631C1.12796 30.058 0.900391 29.5086 0.900391 28.9357C0.900391 28.3628 1.12796 27.8134 1.53304 27.4084L12.945 16L1.53663 4.58806C1.13155 4.18298 0.903984 3.63358 0.903984 3.06071C0.903984 2.48785 1.13155 1.93845 1.53663 1.53337C1.94171 1.12829 2.49111 0.900722 3.06397 0.900722C3.63684 0.900722 4.18624 1.12829 4.59132 1.53337L15.9997 12.9453L27.4116 1.53157C27.8167 1.1265 28.3661 0.898926 28.939 0.898926C29.5118 0.898926 30.0612 1.1265 30.4663 1.53157C30.8714 1.93665 31.099 2.48605 31.099 3.05892C31.099 3.63178 30.8714 4.18118 30.4663 4.58626L19.0544 16L30.4627 27.412Z" fill="black"/>
</svg>
