<svg width="85" height="85" viewBox="0 0 85 85" fill="none" xmlns="http://www.w3.org/2000/svg">
<path d="M34.6868 2.98329C32.3801 3.00719 30.2671 3.79809 28.0149 5.59804C29.2821 17.721 31.2353 29.4279 34.3028 40.4507C32.5454 40.6091 30.7884 40.7717 29.0318 40.9384C23.5444 32.8893 19.9064 24.4348 15.8128 16.0879C14.2456 15.881 12.1073 16.3132 10.3084 17.302C8.41545 18.3422 6.99933 19.9046 6.5833 21.5093C11.8633 32.5507 18.5434 44.1842 25.5662 54.3336C27.0693 56.2311 28.3971 58.2142 29.6958 60.1856L30.1731 60.8603L30.1266 60.8396C31.2436 62.5371 32.3521 64.2153 33.5454 65.8043L31.0655 67.667C28.7236 64.5487 26.7889 61.3443 24.6739 58.3751C18.2424 55.5005 12.0177 53.6635 8.1709 54.1158C6.21823 54.3452 4.97793 55.0139 4.15499 56.3412C3.42087 57.5259 3.04567 59.4897 3.30432 62.3543C16.4494 65.6198 23.8627 72.301 28.9381 76.6625C31.0669 78.492 33.1592 80.1895 35.724 81.6224H56.2945C61.5555 79.3707 65.5419 75.7048 66.4525 71.2308C67.2364 67.3816 69.1363 60.9085 70.0481 57.0315C71.5359 50.7037 74.4289 42.9683 77 36.8086C78.2854 33.7286 79.4894 31.0524 80.4033 29.1459C80.8602 28.1924 81.2453 27.4316 81.5447 26.889C81.5772 26.8296 81.6023 26.7924 81.6327 26.7385C80.9349 25.0076 79.6375 23.4125 78.1048 22.4013C76.5816 21.3959 74.9525 20.9885 73.5862 21.2702C69.8751 27.9054 66.4935 34.7652 64.0662 42.7327C62.5923 42.1517 61.0992 41.6739 59.5838 41.2856C59.4894 39.1149 59.4652 36.9417 59.5112 34.7695L49.0053 33.6643C48.9339 35.7146 48.9201 37.7749 48.9638 39.8434C47.5792 39.7928 46.183 39.7876 44.7823 39.8122C41.848 27.8624 39.9838 15.9388 39.5218 3.98436C37.9451 3.39667 36.5318 3.04438 35.2004 2.99325C35.1833 2.99275 35.1655 2.98877 35.1484 2.98827C34.9924 2.98329 34.8403 2.98163 34.6866 2.98329H34.6868ZM56.8133 3.91181C55.4624 3.90235 54.25 4.19404 53.4361 4.70039C51.9283 10.5143 50.7376 16.3746 49.96 22.298L60.3931 23.3979C61.1418 17.8058 62.33 12.3706 63.8589 7.07126C62.726 5.6412 60.7681 4.55363 58.7174 4.11917C58.0913 3.98647 57.4536 3.91695 56.8136 3.91165L56.8133 3.91181ZM47.5789 25.1773C47.5015 25.1746 47.4278 25.1769 47.3609 25.1822C46.9585 25.2154 46.73 25.3881 46.4793 25.6753C46.1445 26.0588 45.8706 26.7536 45.8153 27.5171C45.7595 28.2808 45.9265 29.0793 46.2094 29.5873C46.4921 30.095 46.7611 30.3015 47.2314 30.3549L61.4154 31.8491H61.4362L61.4569 31.8541C62.2794 31.9633 62.6473 31.7628 63.008 31.3876C63.3688 31.0117 63.653 30.345 63.7136 29.6029C63.7745 28.8605 63.6085 28.0819 63.2986 27.5637C62.9947 27.0552 62.6501 26.7781 62.0382 26.6922L62.007 26.6872L47.8437 25.198H47.8282C47.7455 25.1882 47.6624 25.1813 47.5792 25.1774L47.5789 25.1773Z" fill="#931158"/>
</svg>
