<svg width="16" height="15" viewBox="0 0 16 15" fill="none" xmlns="http://www.w3.org/2000/svg">
<path d="M1.88993 8.38779L7.532 13.5701C7.65374 13.682 7.71461 13.7379 7.77896 13.7696C7.91832 13.8383 8.08168 13.8383 8.22104 13.7696C8.28539 13.7379 8.34626 13.682 8.468 13.5701L14.1101 8.38779C15.7388 6.89178 15.9355 4.39185 14.5609 2.65947L14.3575 2.40314C12.7373 0.361331 9.54136 0.708918 8.398 3.05129C8.2362 3.38277 7.7638 3.38277 7.602 3.05129C6.45864 0.708918 3.26266 0.36133 1.64249 2.40314L1.4391 2.65947C0.0644625 4.39185 0.261211 6.89178 1.88993 8.38779Z" fill="black" stroke="#152032"/>
</svg>
