<svg width="14" height="14" viewBox="0 0 14 14" fill="none" xmlns="http://www.w3.org/2000/svg">
<path d="M1.75 5.83325V11.0833C1.75 11.3927 1.87292 11.6894 2.09171 11.9082C2.3105 12.127 2.60725 12.2499 2.91667 12.2499H11.0833C11.3928 12.2499 11.6895 12.127 11.9083 11.9082C12.1271 11.6894 12.25 11.3927 12.25 11.0833V5.83325" stroke="black" stroke-width="0.5"/>
<path d="M8.65234 12.2499V8.74992C8.65234 8.4405 8.52943 8.14375 8.31063 7.92496C8.09184 7.70617 7.7951 7.58325 7.48568 7.58325H6.31901C6.00959 7.58325 5.71284 7.70617 5.49405 7.92496C5.27526 8.14375 5.15234 8.4405 5.15234 8.74992V12.2499" stroke="black" stroke-width="0.5" stroke-miterlimit="16"/>
<path d="M12.7265 5.46233L11.7383 2.00375C11.7174 1.93063 11.6733 1.86631 11.6125 1.82052C11.5518 1.77474 11.4778 1.74998 11.4018 1.75H9.04102L9.3181 5.07733C9.32238 5.13081 9.33932 5.1825 9.36752 5.22815C9.39571 5.27379 9.43436 5.31207 9.48027 5.33983C9.70777 5.47575 10.1523 5.72658 10.4993 5.83333C11.092 6.01592 11.9577 5.95 12.4512 5.88933C12.4992 5.88313 12.5452 5.86653 12.5861 5.8407C12.627 5.81487 12.6618 5.78042 12.688 5.73977C12.7142 5.69911 12.7312 5.65322 12.7379 5.6053C12.7445 5.55739 12.7407 5.5086 12.7265 5.46233Z" stroke="black" stroke-width="0.5"/>
<path d="M8.16551 5.83333C8.49685 5.73125 8.91685 5.4985 9.15135 5.35967C9.20591 5.32703 9.25018 5.27967 9.27907 5.22303C9.30796 5.16639 9.3203 5.10275 9.31468 5.03942L9.04051 1.75H4.95718L4.68301 5.03942C4.67728 5.10285 4.68957 5.16661 4.71846 5.22336C4.74736 5.28012 4.79169 5.32757 4.84635 5.36025C5.08085 5.4985 5.50085 5.73125 5.83218 5.83333C6.7031 6.10167 7.2946 6.10167 8.16551 5.83333Z" stroke="black" stroke-width="0.5"/>
<path d="M2.26018 2.00375L1.27201 5.46292C1.25806 5.5091 1.25433 5.55778 1.26108 5.60555C1.26783 5.65332 1.2849 5.69906 1.31109 5.73957C1.33729 5.78009 1.37199 5.81442 1.41279 5.84018C1.45359 5.86594 1.4995 5.88251 1.54734 5.88875C2.04026 5.95 2.90651 6.01533 3.49918 5.83333C3.84626 5.72658 4.29134 5.47575 4.51826 5.34042C4.56424 5.3126 4.60294 5.27422 4.63114 5.22847C4.65934 5.18272 4.67623 5.13091 4.68043 5.07733L4.95751 1.75H2.59676C2.5207 1.74998 2.44671 1.77474 2.38598 1.82052C2.32525 1.86631 2.28109 1.93063 2.26018 2.00375Z" stroke="black" stroke-width="0.5"/>
</svg>
