<svg width="89" height="91" viewBox="0 0 89 91" fill="none" xmlns="http://www.w3.org/2000/svg">
<path d="M44.4993 83.4166V22.7499C44.4993 15.5988 44.4993 12.0271 42.3263 9.80517C40.1532 7.58325 36.6599 7.58325 29.666 7.58325H22.2493C15.2554 7.58325 11.7622 7.58325 9.5891 9.80517C7.41602 12.0271 7.41602 15.5988 7.41602 22.7499V68.2499C7.41602 75.401 7.41602 78.9728 9.5891 81.1947C11.7622 83.4166 15.2554 83.4166 22.2493 83.4166H44.4993ZM44.4993 83.4166H66.7493C73.7433 83.4166 77.2365 83.4166 79.4096 81.1947C81.5827 78.9728 81.5827 75.401 81.5827 68.2499V45.4999C81.5827 38.3488 81.5827 34.7771 79.4096 32.5552C77.2365 30.3333 73.7433 30.3333 66.7493 30.3333H44.4993M68.6035 60.6666H57.4785M68.6035 45.4999H57.4785M31.5202 53.0833H20.3952M31.5202 37.9166H20.3952M31.5202 22.7499H20.3952" stroke="#931158" stroke-width="1.5" stroke-linecap="round" stroke-linejoin="round"/>
</svg>
