<svg width="7" height="18" viewBox="0 0 7 18" fill="none" xmlns="http://www.w3.org/2000/svg">
<path d="M6.31836 1.50977V1.77344C6.31836 2.11198 6.14583 2.48307 5.80078 2.88672C5.61849 3.10156 5.34505 3.20898 4.98047 3.20898H4.70703C4.60938 3.18945 4.4987 3.17969 4.375 3.17969C4.25781 3.17969 4.10482 3.08854 3.91602 2.90625C3.73372 2.71745 3.64258 2.48307 3.64258 2.20312V1.94922C3.66211 1.85156 3.67188 1.77669 3.67188 1.72461C3.67188 1.36003 3.87044 1.03451 4.26758 0.748047C4.49544 0.585286 4.76562 0.503906 5.07812 0.503906H5.21484C5.52083 0.503906 5.78125 0.595052 5.99609 0.777344C6.21094 0.953125 6.31836 1.19727 6.31836 1.50977ZM2.67578 14.0977H2.23633C1.61784 14.0977 1.30859 13.8503 1.30859 13.3555C1.30859 12.9193 1.4388 12.4766 1.69922 12.0273C2.49349 10.6341 2.89062 9.21159 2.89062 7.75977C2.89062 7.27799 2.76367 6.94271 2.50977 6.75391C1.98242 6.35677 1.71875 6.10938 1.71875 6.01172C1.71875 5.74479 2.00846 5.49414 2.58789 5.25977C3.17383 5.01888 3.86393 4.89844 4.6582 4.89844H4.80469C5.09766 4.89844 5.28971 4.95378 5.38086 5.06445C5.47852 5.16862 5.52734 5.32161 5.52734 5.52344C5.52734 5.72526 5.36458 6.69531 5.03906 8.43359C4.71354 10.1654 4.55078 11.181 4.55078 11.4805C4.55078 11.9492 4.7819 12.2064 5.24414 12.252C5.71289 12.291 5.94727 12.4831 5.94727 12.8281C5.94727 13.082 5.73242 13.2936 5.30273 13.4629C4.22852 13.8861 3.35286 14.0977 2.67578 14.0977Z" fill="black"/>
<path d="M0 16.4121H6.71875V17.3887H0V16.4121Z" fill="black"/>
</svg>
