<svg width="26" height="24" viewBox="0 0 26 24" fill="none" xmlns="http://www.w3.org/2000/svg">
<path opacity="0.4" d="M12.9993 2.17383C10.161 2.17383 7.85352 4.26663 7.85352 6.84087C7.85352 9.36599 10.031 11.4097 12.8693 11.4981C12.956 11.4883 13.0427 11.4883 13.1077 11.4981C13.1293 11.4981 13.1402 11.4981 13.1618 11.4981C13.1727 11.4981 13.1727 11.4981 13.1835 11.4981C15.9568 11.4097 18.1343 9.36599 18.1452 6.84087C18.1452 4.26663 15.8377 2.17383 12.9993 2.17383Z" fill="white"/>
<path d="M18.503 14.1118C15.4805 12.2843 10.5514 12.2843 7.50721 14.1118C6.13138 14.947 5.37305 16.0769 5.37305 17.2854C5.37305 18.494 6.13138 19.614 7.49638 20.4394C9.01305 21.363 11.0064 21.8247 12.9997 21.8247C14.993 21.8247 16.9864 21.363 18.503 20.4394C19.868 19.6042 20.6264 18.4841 20.6264 17.2658C20.6155 16.0573 19.868 14.9372 18.503 14.1118Z" fill="white"/>
</svg>
