<svg width="59" height="53" viewBox="0 0 59 53" fill="none" xmlns="http://www.w3.org/2000/svg">
<path d="M8.316 35.99C8.90267 35.99 9.196 36.254 9.196 36.782C9.196 37.5007 9.152 37.992 9.064 38.256C8.976 38.52 8.74867 38.652 8.382 38.652H4.07V43.338H9.152C9.504 43.3527 9.746 43.426 9.878 43.558C10.01 43.6753 10.076 43.8587 10.076 44.108C10.076 44.8267 10.01 45.3253 9.878 45.604C9.746 45.868 9.482 46 9.086 46H1.342L0.99 45.648V29.456H8.8C9.43067 29.4707 9.746 29.7053 9.746 30.16C9.73133 30.556 9.70933 30.8713 9.68 31.106C9.65067 31.326 9.55533 31.546 9.394 31.766C9.24733 31.986 9.02733 32.096 8.734 32.096H3.828L4.07 35.99H8.316ZM11.0968 35.022C11.0968 34.8313 11.3608 34.736 11.8888 34.736C12.4314 34.736 12.9301 34.7727 13.3848 34.846C13.8541 34.9193 14.0961 35 14.1108 35.088L16.0688 43.316L17.7848 35.088C17.8434 34.8533 18.0781 34.736 18.4888 34.736C18.8994 34.736 19.2441 34.7507 19.5228 34.78C20.1974 34.8533 20.5201 34.956 20.4908 35.088L20.4688 35.132L17.7188 46C17.6601 46.2347 17.3741 46.352 16.8608 46.352C16.3621 46.352 15.8268 46.3153 15.2548 46.242C14.6974 46.1687 14.4041 46.088 14.3748 46L11.1188 35.132V35.088C11.1041 35.0587 11.0968 35.0367 11.0968 35.022ZM25.9628 46.352C24.3934 46.352 23.3008 45.9267 22.6848 45.076C22.0834 44.2253 21.7828 42.7 21.7828 40.5C21.7828 38.916 21.9221 37.7133 22.2008 36.892C22.4794 36.056 22.8974 35.4913 23.4548 35.198C24.0268 34.89 24.8628 34.736 25.9628 34.736C27.0628 34.736 27.8914 34.89 28.4488 35.198C29.0208 35.506 29.4388 36.078 29.7028 36.914C29.9668 37.75 30.0988 38.938 30.0988 40.478C30.0988 40.566 30.0988 40.654 30.0988 40.742C30.0988 40.83 29.9228 40.9107 29.5708 40.984C29.2334 41.0573 28.8228 41.094 28.3388 41.094H24.9508C24.9801 42.81 25.1048 43.7853 25.3248 44.02C25.4568 44.1373 25.6694 44.196 25.9628 44.196C27.8841 44.196 29.1968 44.1007 29.9008 43.91C29.9301 43.8953 29.9521 43.888 29.9668 43.888C30.0694 43.8587 30.1501 43.9173 30.2088 44.064C30.2821 44.2107 30.3188 44.5553 30.3188 45.098C30.3188 45.6407 30.2014 45.9413 29.9668 46C29.3654 46.2347 28.0308 46.352 25.9628 46.352ZM24.9508 37.618V39.334H27.1728C27.1141 37.6327 26.9454 36.782 26.6668 36.782C26.1681 36.782 25.7574 36.8553 25.4348 37.002C25.1121 37.1487 24.9508 37.354 24.9508 37.618ZM37.603 34.736C38.6883 34.736 39.4803 35.0733 39.979 35.748C40.4923 36.4227 40.749 37.6107 40.749 39.312V46C40.749 46.088 40.7417 46.1467 40.727 46.176C40.6537 46.2933 40.3677 46.352 39.869 46.352C39.385 46.352 38.8863 46.3153 38.373 46.242C37.8597 46.1687 37.603 46.088 37.603 46L37.581 39.312C37.581 37.6693 37.4637 36.848 37.229 36.848C36.701 36.848 35.997 37.112 35.117 37.64V46C35.117 46.088 35.1097 46.1467 35.095 46.176C35.0217 46.2933 34.7357 46.352 34.237 46.352C33.753 46.352 33.247 46.3153 32.719 46.242C32.2057 46.1687 31.949 46.088 31.949 46V35.088C31.949 34.8533 32.2423 34.736 32.829 34.736C33.753 34.736 34.281 34.8533 34.413 35.088C34.413 35.1173 34.4203 35.132 34.435 35.132L34.853 35.968C36.085 35.1467 37.0017 34.736 37.603 34.736ZM43.7472 36.848H41.9872C41.8112 36.848 41.7158 36.8113 41.7012 36.738C41.6718 36.65 41.6572 36.5547 41.6572 36.452C41.6572 35.8213 41.7672 35.484 41.9872 35.44L43.7472 35.088L44.9792 32.602C45.1552 32.382 45.4925 32.272 45.9912 32.272C46.1232 32.272 46.2478 32.536 46.3652 33.064C46.4825 33.592 46.6072 34.2667 46.7392 35.088H48.8512C49.0858 35.088 49.2032 35.3813 49.2032 35.968C49.2032 36.5547 49.0858 36.848 48.8512 36.848H46.7172V43.844L47.0692 46.33V46.352C47.0838 46.44 47.0838 46.4987 47.0692 46.528C46.9958 46.6453 46.6292 46.704 45.9692 46.704C45.3092 46.704 44.9132 46.572 44.7812 46.308L43.7472 44.218V36.848ZM56.2193 37.684L56.0873 37.64L55.2513 37.222C54.6206 36.9727 54.0779 36.848 53.6233 36.848C52.9633 36.8773 52.6333 37.1927 52.6333 37.794C52.6333 38.0287 52.7579 38.2193 53.0073 38.366C53.2713 38.5127 53.4839 38.63 53.6453 38.718C53.8066 38.7913 54.0413 38.9013 54.3493 39.048C55.4493 39.5173 56.2633 40.038 56.7913 40.61C57.3339 41.182 57.6053 41.7467 57.6053 42.304C57.6053 43.5213 57.2826 44.504 56.6373 45.252C55.9919 45.9853 55.1119 46.352 53.9973 46.352C52.8973 46.352 52.0319 46.2053 51.4013 45.912C50.7706 45.6187 50.2426 45.2007 49.8173 44.658C49.7586 44.6287 49.7293 44.5847 49.7293 44.526C49.7293 44.4673 49.7366 44.394 49.7513 44.306C49.7806 44.218 49.9566 43.9833 50.2793 43.602C50.6019 43.206 50.8586 43.008 51.0493 43.008C51.1079 43.008 51.1666 43.0373 51.2253 43.096C52.0026 43.712 52.7579 44.02 53.4913 44.02C53.9019 44.02 54.2099 43.9027 54.4153 43.668C54.6206 43.4333 54.7233 43.1767 54.7233 42.898C54.7233 42.6193 54.6059 42.392 54.3713 42.216C54.1366 42.04 53.8433 41.8713 53.4913 41.71C53.1539 41.534 52.9706 41.4387 52.9413 41.424C52.9119 41.4093 52.8679 41.3873 52.8093 41.358C52.7653 41.3287 52.7213 41.3067 52.6773 41.292C51.9293 40.9253 51.2913 40.4707 50.7633 39.928C50.2499 39.3707 49.9933 38.7547 49.9933 38.08C49.9933 36.9067 50.2939 36.056 50.8953 35.528C51.5113 35 52.4793 34.736 53.7993 34.736C54.2979 34.736 54.7746 34.7947 55.2293 34.912C55.8453 35.0733 56.2853 35.264 56.5493 35.484H56.5713C56.6886 35.5573 56.7546 35.6453 56.7693 35.748C56.7986 35.8507 56.7913 36.0707 56.7473 36.408C56.6006 37.2587 56.4246 37.684 56.2193 37.684Z" fill="#931158"/>
<path d="M58.8824 7.25236C58.8248 7.15968 58.7476 7.07857 58.6553 7.01385C58.563 6.94913 58.4576 6.9021 58.3452 6.87556C58.2328 6.84902 58.1157 6.84351 58.0009 6.85934C57.8862 6.87518 57.7761 6.91205 57.6771 6.96776L52.0833 10.0987L46.4895 13.2297C42.1205 15.6751 39.6709 17.0461 35.3019 19.4916C34.683 18.4248 34.3749 17.2288 34.4078 16.0201C34.4407 14.8113 34.8134 13.631 35.4896 12.5941C36.1658 11.5572 37.1224 10.699 38.2663 10.1033C39.4102 9.50749 40.7023 9.1944 42.0168 9.19449C43.7501 9.19231 45.4317 9.73771 46.7802 10.7394L42.0202 13.748L54.3927 7.17417C54.4582 7.13988 54.5155 7.09372 54.5611 7.03849C54.6067 6.98325 54.6396 6.92008 54.6579 6.8528C54.6762 6.78552 54.6795 6.71553 54.6675 6.64705C54.6556 6.57858 54.6287 6.51304 54.5884 6.45441C54.5481 6.39578 54.4954 6.34527 54.4333 6.30594C54.3712 6.2666 54.301 6.23926 54.2271 6.22556C54.1532 6.21186 54.0771 6.2121 54.0033 6.22624C53.9294 6.24039 53.8595 6.26816 53.7977 6.30787L50.77 8.2203C49.6263 7.15406 48.2634 6.30783 46.7606 5.7309C45.2578 5.15397 43.6452 4.85788 42.0168 4.85987C38.7492 4.86153 35.6161 6.05669 33.3062 8.1826C30.9963 10.3085 29.6988 13.1912 29.6988 16.1968C29.6988 18.214 30.2716 20.1061 31.2729 21.7464L25 25.257L31.4429 22.0107C32.5346 23.6947 34.083 25.0891 35.9366 26.0573C37.7902 27.0254 39.8853 27.5342 42.0168 27.5338C45.2841 27.5317 48.4168 26.3363 50.7263 24.2105C53.0359 22.0846 54.3332 19.2022 54.3332 16.1968V14.8426C54.3332 13.7824 54.8007 12.4251 56.4582 11.6089C56.4917 11.592 56.5212 11.5693 56.5451 11.5419C56.569 11.5145 56.5867 11.483 56.5973 11.4493C56.6079 11.4156 56.6111 11.3803 56.6068 11.3454C56.6025 11.3105 56.5907 11.2768 56.5721 11.2461C56.5536 11.2159 56.5287 11.1894 56.4989 11.1681C56.4692 11.1468 56.4351 11.1312 56.3987 11.1222C56.3623 11.1132 56.3243 11.1109 56.2869 11.1155C56.2496 11.1202 56.2136 11.1316 56.1811 11.1491L41.4932 18.9552C43.1337 18.3141 44.3866 17.9232 46.0492 17.6167C49.5087 16.9755 49.5971 18.4955 48.2609 20.2077C47.3667 21.3555 45.3437 23.1976 42.0185 23.1976C40.7317 23.1982 39.4658 22.8982 38.3395 22.3258C37.2131 21.7533 36.2633 20.9272 35.579 19.9247L58.5458 8.35322C58.6479 8.30237 58.7378 8.23318 58.8103 8.14975C58.8828 8.06632 58.9363 7.97035 58.9677 7.86753C58.9991 7.76471 59.0077 7.65714 58.9931 7.5512C58.9784 7.44526 58.9408 7.3431 58.8824 7.25079" fill="#931158"/>
<path d="M7.748 27.416C5.16533 27.416 3.38 26.688 2.392 25.232C1.42133 23.776 0.936 21.15 0.936 17.354C0.936 14.598 1.15267 12.4833 1.586 11.01C2.01933 9.53667 2.704 8.50533 3.64 7.916C4.59333 7.32667 5.93667 7.032 7.67 7.032C9.40333 7.032 10.738 7.266 11.674 7.734C12.0553 7.92467 12.246 8.18467 12.246 8.514C12.246 8.618 12.1593 8.91267 11.986 9.398C11.83 9.88333 11.674 10.2127 11.518 10.386C11.3793 10.5593 11.2233 10.646 11.05 10.646C10.8767 10.646 10.3913 10.5767 9.594 10.438C8.814 10.2993 8.14667 10.23 7.592 10.23C7.03733 10.23 6.63867 10.282 6.396 10.386C6.15333 10.49 5.954 10.6893 5.798 10.984C5.642 11.2613 5.512 11.5647 5.408 11.894C5.32133 12.206 5.252 12.6653 5.2 13.272C5.13067 14.0867 5.096 15.6987 5.096 18.108C5.096 20.5 5.23467 22.112 5.512 22.944C5.80667 23.776 6.474 24.192 7.514 24.192L9.646 24.062V18.394C9.66333 18.0473 9.776 17.822 9.984 17.718C10.2093 17.5967 10.5993 17.536 11.154 17.536C11.7087 17.5187 12.1247 17.588 12.402 17.744C12.6793 17.8827 12.8353 18.1773 12.87 18.628L13.312 23.724V27C11.1107 27.2773 9.256 27.416 7.748 27.416ZM15.4408 27V14.104C15.4408 13.8267 15.7528 13.688 16.3768 13.688C17.0008 13.688 17.5901 13.7313 18.1448 13.818C18.6994 13.9047 18.9768 14 18.9768 14.104V27C18.9768 27.104 18.9681 27.1733 18.9508 27.208C18.8641 27.3467 18.5348 27.416 17.9628 27.416C17.3908 27.416 16.8274 27.3727 16.2728 27.286C15.7181 27.1993 15.4408 27.104 15.4408 27ZM17.0528 10.776C15.8048 10.776 15.1808 10.152 15.1808 8.904C15.1808 7.656 15.8048 7.032 17.0528 7.032C18.3008 7.032 18.9248 7.656 18.9248 8.904C18.9248 10.152 18.3008 10.776 17.0528 10.776ZM24.3214 15.144C25.7427 14.1733 26.6787 13.688 27.1294 13.688C27.5974 13.688 28.0134 13.7747 28.3774 13.948C28.7587 14.1213 29.036 14.2947 29.2094 14.468L29.4434 14.702C29.1834 15.8113 28.984 16.5047 28.8454 16.782C28.7067 17.0593 28.516 17.198 28.2734 17.198C28.048 17.198 27.7534 17.1027 27.3894 16.912C27.0254 16.7213 26.696 16.626 26.4014 16.626C26.1067 16.626 25.5174 16.8947 24.6334 17.432V27C24.6334 27.104 24.616 27.1733 24.5814 27.208C24.512 27.3467 24.1914 27.416 23.6194 27.416C23.0474 27.416 22.51 27.3727 22.0074 27.286C21.522 27.1993 21.2794 27.104 21.2794 27V14.104C21.2794 13.8267 21.6694 13.688 22.4494 13.688C23.2294 13.688 23.68 13.8267 23.8014 14.104V14.156L24.3214 15.144Z" fill="#931158"/>
</svg>
