<svg width="10" height="12" viewBox="0 0 10 12" fill="none" xmlns="http://www.w3.org/2000/svg">
<path d="M4.99935 5.70829C4.61258 5.70829 4.24164 5.55465 3.96815 5.28116C3.69466 5.00767 3.54102 4.63673 3.54102 4.24996C3.54102 3.86319 3.69466 3.49225 3.96815 3.21876C4.24164 2.94527 4.61258 2.79163 4.99935 2.79163C5.38612 2.79163 5.75706 2.94527 6.03055 3.21876C6.30404 3.49225 6.45768 3.86319 6.45768 4.24996C6.45768 4.44147 6.41996 4.63111 6.34667 4.80804C6.27339 4.98497 6.16597 5.14574 6.03055 5.28116C5.89513 5.41658 5.73436 5.524 5.55743 5.59728C5.3805 5.67057 5.19086 5.70829 4.99935 5.70829ZM4.99935 0.166626C3.91638 0.166626 2.87777 0.596833 2.112 1.36261C1.34622 2.12838 0.916016 3.16699 0.916016 4.24996C0.916016 7.31246 4.99935 11.8333 4.99935 11.8333C4.99935 11.8333 9.08268 7.31246 9.08268 4.24996C9.08268 3.16699 8.65248 2.12838 7.8867 1.36261C7.12093 0.596833 6.08232 0.166626 4.99935 0.166626Z" fill="black"/>
</svg>
