<svg width="34" height="35" viewBox="0 0 34 35" fill="none" xmlns="http://www.w3.org/2000/svg">
<path d="M9.20833 19.6875H19.125V18.2292H9.20833V19.6875ZM9.20833 15.3125H24.7917V13.8542H9.20833V15.3125ZM9.20833 10.9375H24.7917V9.47917H9.20833V10.9375ZM4.25 29.279V6.73167C4.25 6.05986 4.46864 5.49937 4.90592 5.05021C5.34319 4.60104 5.88719 4.37597 6.53792 4.375H27.4621C28.1138 4.375 28.6578 4.60007 29.0941 5.05021C29.5304 5.50035 29.7491 6.06083 29.75 6.73167V22.4365C29.75 23.1073 29.5314 23.6678 29.0941 24.1179C28.6568 24.5681 28.1128 24.7926 27.4621 24.7917H8.60908L4.25 29.279ZM8.00417 23.3333H27.4621C27.6793 23.3333 27.8791 23.24 28.0613 23.0533C28.2436 22.8667 28.3343 22.661 28.3333 22.4365V6.73021C28.3333 6.5066 28.2427 6.30097 28.0613 6.11333C27.88 5.92569 27.6803 5.83236 27.4621 5.83333H6.53792C6.32069 5.83333 6.12094 5.92667 5.93867 6.11333C5.75639 6.3 5.66572 6.50562 5.66667 6.73021V25.7323L8.00417 23.3333Z" fill="#931158"/>
<ellipse cx="28.5833" cy="5.58333" rx="2.58333" ry="2.58333" fill="#FF0000"/>
</svg>
