<svg width="42" height="23" viewBox="0 0 42 23" fill="none" xmlns="http://www.w3.org/2000/svg">
<rect width="42" height="20.5613" rx="10.2806" fill="black" fill-opacity="0.38"/>
<path d="M23.542 14V12.464H19.726V11.72L21.97 6.08H23.026L20.734 11.612H23.542V9.164H24.502V11.612H25.498V12.464H24.502V14H23.542ZM26.2648 14V12.596H27.2848V14H26.2648ZM30.5381 14.12C30.2981 14.12 30.0421 14.108 29.7701 14.084C29.4981 14.06 29.2381 14.032 28.9901 14C28.7421 13.968 28.5301 13.936 28.3541 13.904L28.4501 13.124C28.6101 13.14 28.8061 13.16 29.0381 13.184C29.2701 13.208 29.5181 13.228 29.7821 13.244C30.0461 13.26 30.2981 13.268 30.5381 13.268C31.2501 13.268 31.7821 13.048 32.1341 12.608C32.4941 12.16 32.6781 11.476 32.6861 10.556C32.4861 10.628 32.2661 10.7 32.0261 10.772C31.7861 10.844 31.5461 10.904 31.3061 10.952C31.0741 10.992 30.8581 11.012 30.6581 11.012C29.8261 11.012 29.1861 10.816 28.7381 10.424C28.2901 10.032 28.0661 9.42 28.0661 8.588C28.0661 8.044 28.1781 7.576 28.4021 7.184C28.6261 6.792 28.9421 6.492 29.3501 6.284C29.7661 6.068 30.2541 5.96 30.8141 5.96C31.4861 5.96 32.0301 6.128 32.4461 6.464C32.8701 6.792 33.1821 7.264 33.3821 7.88C33.5821 8.496 33.6821 9.224 33.6821 10.064C33.6821 10.832 33.6101 11.476 33.4661 11.996C33.3221 12.516 33.1141 12.932 32.8421 13.244C32.5781 13.556 32.2501 13.78 31.8581 13.916C31.4741 14.052 31.0341 14.12 30.5381 14.12ZM30.7421 10.16C30.9421 10.16 31.1621 10.136 31.4021 10.088C31.6421 10.04 31.8781 9.984 32.1101 9.92C32.3421 9.848 32.5381 9.784 32.6981 9.728C32.6901 9.16 32.6221 8.66 32.4941 8.228C32.3741 7.788 32.1781 7.444 31.9061 7.196C31.6341 6.94 31.2701 6.812 30.8141 6.812C30.2701 6.812 29.8381 6.972 29.5181 7.292C29.2061 7.612 29.0501 8.044 29.0501 8.588C29.0501 9.132 29.1941 9.532 29.4821 9.788C29.7701 10.036 30.1901 10.16 30.7421 10.16Z" fill="white"/>
<path d="M9.10302 5.5897C9.63262 4.22331 9.89742 3.54012 10.3276 3.44543C10.4408 3.42053 10.5577 3.42053 10.6708 3.44543C11.101 3.54012 11.3658 4.22331 11.8954 5.5897C12.1966 6.36674 12.3472 6.75526 12.629 7.01951C12.708 7.09363 12.7938 7.15965 12.8851 7.21662C13.2108 7.41977 13.6174 7.45745 14.4305 7.53281C15.8069 7.66039 16.4952 7.72417 16.7053 8.13028C16.7489 8.21439 16.7784 8.30545 16.7929 8.39969C16.8626 8.8547 16.3566 9.33107 15.3447 10.2838L15.0637 10.5484C14.5906 10.9938 14.3541 11.2165 14.2173 11.4945C14.1352 11.6612 14.0802 11.8408 14.0544 12.026C14.0114 12.3347 14.0807 12.6578 14.2192 13.304L14.2687 13.5349C14.5171 14.6937 14.6414 15.2731 14.4863 15.5579C14.347 15.8137 14.0904 15.9775 13.807 15.9915C13.4915 16.0071 13.0469 15.6322 12.1578 14.8824C11.572 14.3884 11.2791 14.1414 10.9539 14.0449C10.6568 13.9567 10.3417 13.9567 10.0445 14.0449C9.71936 14.1414 9.42646 14.3884 8.84065 14.8824C7.9515 15.6322 7.50693 16.0071 7.19141 15.9915C6.908 15.9775 6.65144 15.8137 6.51215 15.5579C6.35709 15.2731 6.4813 14.6937 6.72974 13.5349L6.77924 13.304C6.91777 12.6578 6.98704 12.3347 6.94405 12.026C6.91827 11.8408 6.86324 11.6612 6.78117 11.4945C6.64435 11.2165 6.40781 10.9938 5.93473 10.5484L5.65373 10.2838C4.64183 9.33107 4.13588 8.8547 4.20556 8.39969C4.21999 8.30545 4.24958 8.21439 4.29311 8.13028C4.50328 7.72417 5.19151 7.66039 6.56796 7.53281C7.38107 7.45745 7.78762 7.41977 8.1133 7.21662C8.20465 7.15965 8.29044 7.09363 8.36948 7.01951C8.65125 6.75526 8.80184 6.36674 9.10302 5.5897Z" fill="#FFCC00" stroke="#FFCC00"/>
</svg>
