<svg width="26" height="26" viewBox="0 0 26 26" fill="none" xmlns="http://www.w3.org/2000/svg">
<path d="M12.9993 2.1665C10.161 2.1665 7.85352 4.474 7.85352 7.31234C7.85352 10.0965 10.031 12.3498 12.8693 12.4473C12.956 12.4365 13.0427 12.4365 13.1077 12.4473C13.1294 12.4473 13.1402 12.4473 13.1618 12.4473C13.1727 12.4473 13.1727 12.4473 13.1835 12.4473C15.9569 12.3498 18.1344 10.0965 18.1452 7.31234C18.1452 4.474 15.8377 2.1665 12.9993 2.1665Z" fill="black"/>
<path d="M18.503 15.3291C15.4805 13.3141 10.5514 13.3141 7.50721 15.3291C6.13138 16.25 5.37305 17.4958 5.37305 18.8283C5.37305 20.1608 6.13138 21.3958 7.49638 22.3058C9.01305 23.3241 11.0064 23.8333 12.9997 23.8333C14.993 23.8333 16.9864 23.3241 18.503 22.3058C19.868 21.385 20.6264 20.15 20.6264 18.8066C20.6155 17.4741 19.868 16.2391 18.503 15.3291ZM15.1664 19.6408H13.8122V20.995C13.8122 21.4391 13.4439 21.8075 12.9997 21.8075C12.5555 21.8075 12.1872 21.4391 12.1872 20.995V19.6408H10.833C10.3889 19.6408 10.0205 19.2725 10.0205 18.8283C10.0205 18.3841 10.3889 18.0158 10.833 18.0158H12.1872V16.6616C12.1872 16.2175 12.5555 15.8491 12.9997 15.8491C13.4439 15.8491 13.8122 16.2175 13.8122 16.6616V18.0158H15.1664C15.6105 18.0158 15.9789 18.3841 15.9789 18.8283C15.9789 19.2725 15.6105 19.6408 15.1664 19.6408Z" fill="black"/>
</svg>
