<svg width="20" height="20" viewBox="0 0 20 20" fill="none" xmlns="http://www.w3.org/2000/svg">
<path d="M16.1111 16.6667L7.22217 16.6667L7.22217 11.2223L6.11106 11.2223L6.11106 16.6667C6.11106 16.9614 6.22812 17.244 6.43649 17.4524C6.64487 17.6608 6.92748 17.7778 7.22217 17.7778L16.1111 17.7778C16.4057 17.7778 16.6884 17.6608 16.8967 17.4524C17.1051 17.244 17.2222 16.9614 17.2222 16.6667L17.2222 3.33339C17.2222 3.0387 17.1051 2.75609 16.8967 2.54771C16.6884 2.33934 16.4057 2.22228 16.1111 2.22228L7.22217 2.22228C6.92748 2.22228 6.64487 2.33934 6.4365 2.54771C6.22812 2.75609 6.11106 3.0387 6.11106 3.33339L16.1111 3.33339L16.1111 16.6667Z" fill="black"/>
<path d="M4.35553 10.4001C4.4618 10.4911 4.59851 10.5387 4.73833 10.5333C4.87815 10.5279 5.01079 10.4699 5.10973 10.371C5.20867 10.272 5.26663 10.1394 5.27203 9.99958C5.27743 9.85976 5.22987 9.72305 5.13886 9.61677L3.26108 7.77788L11.3166 7.77788C11.464 7.77788 11.6053 7.71935 11.7095 7.61516C11.8137 7.51098 11.8722 7.36967 11.8722 7.22233C11.8722 7.07498 11.8137 6.93368 11.7095 6.82949C11.6053 6.7253 11.464 6.66677 11.3166 6.66677L3.26108 6.66677L5.13886 4.74455C5.19702 4.69474 5.24425 4.63346 5.2776 4.56453C5.31094 4.49561 5.32968 4.42053 5.33264 4.34402C5.33559 4.26751 5.3227 4.19121 5.29477 4.11992C5.26684 4.04863 5.22447 3.98388 5.17033 3.92974C5.11619 3.8756 5.05144 3.83324 4.98015 3.80531C4.90886 3.77738 4.83256 3.76448 4.75605 3.76744C4.67954 3.77039 4.60447 3.78913 4.53554 3.82248C4.46662 3.85582 4.40533 3.90306 4.35553 3.96121L1.11108 7.18344L4.35553 10.4001Z" fill="black"/>
</svg>
