<svg width="13" height="13" viewBox="0 0 13 13" fill="none" xmlns="http://www.w3.org/2000/svg">
<path d="M6.09375 4.25049C5.58675 4.38915 5.28125 4.77861 5.28125 5.14586C5.28125 5.51311 5.58675 5.90257 6.09375 6.0407V4.25049ZM6.90625 6.95936V8.74903C7.41325 8.61091 7.71875 8.22145 7.71875 7.8542C7.71875 7.48695 7.41325 7.09749 6.90625 6.95936Z" fill="black"/>
<path fill-rule="evenodd" clip-rule="evenodd" d="M11.9173 6.50004C11.9173 9.49166 9.49228 11.9167 6.50065 11.9167C3.50903 11.9167 1.08398 9.49166 1.08398 6.50004C1.08398 3.50842 3.50903 1.08337 6.50065 1.08337C9.49228 1.08337 11.9173 3.50842 11.9173 6.50004ZM6.50065 2.84379C6.60839 2.84379 6.71173 2.88659 6.78791 2.96278C6.8641 3.03896 6.9069 3.1423 6.9069 3.25004V3.42175C7.78982 3.57992 8.5319 4.24346 8.5319 5.14587C8.5319 5.25362 8.4891 5.35695 8.41291 5.43314C8.33673 5.50932 8.23339 5.55212 8.12565 5.55212C8.01791 5.55212 7.91458 5.50932 7.83839 5.43314C7.7622 5.35695 7.7194 5.25362 7.7194 5.14587C7.7194 4.77862 7.4139 4.38917 6.9069 4.2505V6.13008C7.78982 6.28825 8.5319 6.95179 8.5319 7.85421C8.5319 8.75662 7.78982 9.42017 6.9069 9.57833V9.75004C6.9069 9.85778 6.8641 9.96112 6.78791 10.0373C6.71173 10.1135 6.60839 10.1563 6.50065 10.1563C6.39291 10.1563 6.28958 10.1135 6.21339 10.0373C6.1372 9.96112 6.0944 9.85778 6.0944 9.75004V9.57833C5.21148 9.42017 4.4694 8.75662 4.4694 7.85421C4.4694 7.74646 4.5122 7.64313 4.58839 7.56695C4.66458 7.49076 4.76791 7.44796 4.87565 7.44796C4.98339 7.44796 5.08673 7.49076 5.16291 7.56695C5.2391 7.64313 5.2819 7.74646 5.2819 7.85421C5.2819 8.22146 5.5874 8.61092 6.0944 8.74904V6.87C5.21148 6.71183 4.4694 6.04829 4.4694 5.14587C4.4694 4.24346 5.21148 3.57992 6.0944 3.42175V3.25004C6.0944 3.1423 6.1372 3.03896 6.21339 2.96278C6.28958 2.88659 6.39291 2.84379 6.50065 2.84379Z" fill="black"/>
</svg>
