<svg width="22" height="22" viewBox="0 0 22 22" fill="none" xmlns="http://www.w3.org/2000/svg">
<g clip-path="url(#clip0_238_3148)">
<path d="M18.85 2H4.15C3.31457 2 2.51335 2.33187 1.92261 2.92261C1.33187 3.51335 1 4.31457 1 5.15V6.3785C0.99985 6.81209 1.08921 7.24104 1.2625 7.6385V7.7015C1.41063 8.03864 1.62077 8.34495 1.882 8.6045L8.35 15.0305V21.95C8.34964 22.1284 8.39477 22.304 8.48111 22.4602C8.56746 22.6163 8.69218 22.7479 8.8435 22.8425C9.0106 22.9461 9.20341 23.0006 9.4 23C9.56437 22.999 9.72621 22.9594 9.8725 22.8845L14.0725 20.7845C14.2457 20.6972 14.3913 20.5637 14.4932 20.3988C14.5951 20.2338 14.6494 20.0439 14.65 19.85V15.0305L21.076 8.6045C21.3372 8.34495 21.5474 8.03864 21.6955 7.7015V7.6385C21.8833 7.24415 21.9869 6.81507 22 6.3785V5.15C22 4.31457 21.6681 3.51335 21.0774 2.92261C20.4866 2.33187 19.6854 2 18.85 2ZM12.8545 13.8545C12.7572 13.9526 12.6802 14.069 12.6279 14.1969C12.5757 14.3248 12.5492 14.4618 12.55 14.6V19.199L10.45 20.249V14.6C10.4508 14.4618 10.4243 14.3248 10.3721 14.1969C10.3198 14.069 10.2428 13.9526 10.1455 13.8545L4.5805 8.3H18.4195L12.8545 13.8545ZM19.9 6.2H3.1V5.15C3.1 4.87152 3.21062 4.60445 3.40754 4.40754C3.60445 4.21062 3.87152 4.1 4.15 4.1H18.85C19.1285 4.1 19.3955 4.21062 19.5925 4.40754C19.7894 4.60445 19.9 4.87152 19.9 5.15V6.2Z" fill="#A5A5A5"/>
</g>
<defs>
<clipPath id="clip0_238_3148">
<rect width="22" height="22" fill="white"/>
</clipPath>
</defs>
</svg>
