<svg width="11" height="12" viewBox="0 0 11 12" fill="none" xmlns="http://www.w3.org/2000/svg">
<path fill-rule="evenodd" clip-rule="evenodd" d="M3.06315 0.541626C3.36231 0.541626 3.60482 0.784138 3.60482 1.08329V1.62496H7.39648V1.08329C7.39648 0.784138 7.639 0.541626 7.93815 0.541626C8.23731 0.541626 8.47982 0.784138 8.47982 1.08329V1.63833C9.84843 1.77422 10.9173 2.92893 10.9173 4.33329V9.20829C10.9173 10.7041 9.70476 11.9166 8.20898 11.9166H2.79232C1.29655 11.9166 0.0839844 10.7041 0.0839844 9.20829V4.33329C0.0839844 2.92893 1.15288 1.77422 2.52148 1.63833V1.08329C2.52148 0.784138 2.764 0.541626 3.06315 0.541626ZM1.25978 3.79163H9.74152C9.51844 3.16048 8.91652 2.70829 8.20898 2.70829H2.79232C2.08478 2.70829 1.48286 3.16048 1.25978 3.79163ZM9.83398 4.87496H1.16732V9.20829C1.16732 10.1058 1.89486 10.8333 2.79232 10.8333H8.20898C9.10645 10.8333 9.83398 10.1058 9.83398 9.20829V4.87496ZM8.05033 5.84611C8.26187 6.05764 8.26187 6.40061 8.05033 6.61214L5.342 9.32048C5.13047 9.53201 4.7875 9.53201 4.57597 9.32048L3.2218 7.96631C3.01027 7.75478 3.01027 7.41181 3.2218 7.20028C3.43334 6.98874 3.7763 6.98874 3.98783 7.20028L4.95898 8.17143L7.2843 5.84611C7.49584 5.63458 7.8388 5.63458 8.05033 5.84611Z" fill="black"/>
</svg>
