<svg width="78" height="78" viewBox="0 0 78 78" fill="none" xmlns="http://www.w3.org/2000/svg">
<g clip-path="url(#clip0_238_4567)">
<path d="M32.532 0.281982C27.693 0.281982 24.282 3.70798 24.282 8.53198C24.282 13.842 28.476 17.295 32.532 20.625C33.858 21.714 35.154 22.809 36.375 24H15C11.052 24 7.773 26.553 6.561 30.093C6.561 30.093 7.173 36 16.5 36C25.17 36 25.491 31.59 25.5 31.407C25.5201 31.0242 25.6874 30.664 25.967 30.4018C26.2466 30.1396 26.6167 29.9956 27 30C27.3938 30.0127 27.7679 30.1749 28.0465 30.4534C28.3251 30.732 28.4873 31.1062 28.5 31.5C28.512 31.653 28.935 36 39 36C49.065 36 49.485 31.59 49.5 31.407C49.5315 31.0118 49.7152 30.6442 50.0123 30.3817C50.3095 30.1193 50.6969 29.9824 51.093 30C51.4771 30.0164 51.8395 30.1826 52.1025 30.463C52.3655 30.7434 52.5082 31.1156 52.5 31.5C52.506 31.659 52.77 36 61.5 36C71.109 36 71.439 30.093 71.439 30.093C70.227 26.556 66.942 24 63 24H41.625C42.8574 22.8209 44.1396 21.6948 45.468 20.625C49.521 17.295 53.718 13.839 53.718 8.53198C53.718 3.70798 50.31 0.281982 45.468 0.281982C42.678 0.281982 40.317 2.27998 39 3.65698C37.689 2.27698 35.319 0.281982 32.532 0.281982ZM27.09 35.157C25.626 37.065 22.626 39 16.5 39C10.485 39 7.497 37.125 6 35.25V48H72V35.25C70.503 37.11 67.506 39 61.5 39C55.35 39 52.368 37.059 50.907 35.157C49.245 37.056 45.855 39 39 39C32.121 39 28.746 37.065 27.093 35.157H27.09ZM9 51C5.052 51 1.773 53.553 0.561 57.093C0.564 57.093 1.173 63 10.5 63C19.17 63 22.491 58.59 22.5 58.407C22.5201 58.0242 22.6874 57.664 22.967 57.4018C23.2466 57.1396 23.6167 56.9956 24 57C24.3938 57.0127 24.7679 57.1749 25.0465 57.4534C25.3251 57.732 25.4873 58.1062 25.5 58.5C25.512 58.653 28.935 63 39 63C49.065 63 52.485 58.59 52.5 58.407C52.5315 58.0118 52.7152 57.6442 53.0123 57.3817C53.3095 57.1193 53.6969 56.9824 54.093 57C54.4771 57.0164 54.8395 57.1826 55.1025 57.463C55.3655 57.7434 55.5082 58.1156 55.5 58.5C55.506 58.659 58.77 63 67.5 63C77.109 63 77.439 57.093 77.439 57.093C76.227 53.556 72.942 51 69 51H9ZM24.093 62.157C22.626 64.065 16.626 66 10.5 66C4.485 66 1.497 64.125 0 62.25V72C0 76.968 4.032 78 9 78H69C73.968 78 78 76.968 78 72V62.25C76.503 64.11 73.506 66 67.5 66C61.35 66 55.368 64.059 53.907 62.157C52.245 64.056 45.855 66 39 66C32.121 66 25.746 64.065 24.093 62.157Z" fill="#931158"/>
</g>
<defs>
<clipPath id="clip0_238_4567">
<rect width="78" height="78" fill="white"/>
</clipPath>
</defs>
</svg>
