<svg width="78" height="78" viewBox="0 0 78 78" fill="none" xmlns="http://www.w3.org/2000/svg">
<g clip-path="url(#clip0_238_4559)">
<path d="M14.9998 0C14.9998 0 9.09278 6.507 9.09278 9.75C9.09406 11.1967 9.63138 12.5917 10.601 13.6655C11.5706 14.7392 12.9037 15.4156 14.3428 15.564C13.6536 15.4205 13.035 15.0437 12.5913 14.4972C12.1475 13.9507 11.9058 13.268 11.9068 12.564C11.9068 10.875 14.9998 7.5 14.9998 7.5C14.9998 7.5 18.0928 10.872 18.0928 12.564C18.0928 14.043 17.0488 15.279 15.6568 15.564C17.0959 15.4156 18.429 14.7392 19.3986 13.6655C20.3682 12.5917 20.9055 11.1967 20.9068 9.75C20.9068 6.51 14.9998 0 14.9998 0ZM38.9998 0C38.9998 0 33.0928 6.507 33.0928 9.75C33.0941 11.1967 33.6314 12.5917 34.601 13.6655C35.5706 14.7392 36.9037 15.4156 38.3428 15.564C37.6536 15.4205 37.035 15.0437 36.5913 14.4972C36.1475 13.9507 35.9058 13.268 35.9068 12.564C35.9068 10.875 38.9998 7.5 38.9998 7.5C38.9998 7.5 42.0928 10.872 42.0928 12.564C42.0928 14.043 41.0488 15.279 39.6568 15.564C41.0959 15.4156 42.429 14.7392 43.3986 13.6655C44.3682 12.5917 44.9055 11.1967 44.9068 9.75C44.9068 6.51 38.9998 0 38.9998 0ZM62.9998 0C62.9998 0 57.0928 6.507 57.0928 9.75C57.0941 11.1967 57.6314 12.5917 58.601 13.6655C59.5706 14.7392 60.9037 15.4156 62.3428 15.564C61.6536 15.4205 61.035 15.0437 60.5913 14.4972C60.1475 13.9507 59.9058 13.268 59.9068 12.564C59.9068 10.875 62.9998 7.5 62.9998 7.5C62.9998 7.5 66.0928 10.872 66.0928 12.564C66.0928 14.043 65.0488 15.279 63.6568 15.564C65.0959 15.4156 66.429 14.7392 67.3986 13.6655C68.3682 12.5917 68.9055 11.1967 68.9068 9.75C68.9068 6.51 62.9998 0 62.9998 0ZM9.09278 17.064C8.84867 17.0204 8.59792 17.0315 8.35865 17.0967C8.11938 17.1618 7.89756 17.2793 7.70924 17.4406C7.52093 17.602 7.3708 17.8031 7.26972 18.0296C7.16865 18.256 7.11914 18.5021 7.12478 18.75C7.12478 19.83 9.09278 21.783 9.09278 25.218V41.907H20.9098V24.939C20.9098 22.842 22.8778 22.083 22.8778 21C22.8778 19.92 22.8328 18.75 19.5028 18.75C14.5498 18.75 9.09578 17.061 9.09578 17.061L9.09278 17.064ZM33.0928 17.064C32.8487 17.0204 32.5979 17.0315 32.3586 17.0967C32.1194 17.1618 31.8976 17.2793 31.7092 17.4406C31.5209 17.602 31.3708 17.8031 31.2697 18.0296C31.1686 18.256 31.1191 18.5021 31.1248 18.75C31.1248 19.83 33.0928 21.783 33.0928 25.218V41.907H44.9068V24.939C44.9068 22.842 46.8748 22.083 46.8748 21C46.8748 19.92 46.8298 18.75 43.4998 18.75C38.5468 18.75 33.0928 17.061 33.0928 17.061V17.064ZM57.0928 17.064C56.8487 17.0204 56.5979 17.0315 56.3586 17.0967C56.1194 17.1618 55.8976 17.2793 55.7092 17.4406C55.5209 17.602 55.3708 17.8031 55.2697 18.0296C55.1686 18.256 55.1191 18.5021 55.1248 18.75C55.1248 19.83 57.0928 21.783 57.0928 25.218V41.907H68.9068V24.939C68.9068 22.842 70.8748 22.083 70.8748 21C70.8748 19.92 70.8298 18.75 67.4998 18.75C62.5468 18.75 57.0928 17.061 57.0928 17.061V17.064ZM11.9998 45C7.03178 45 2.99978 49.032 2.99978 54V72C2.90584 71.9956 2.81173 71.9956 2.71778 72C2.32382 72.0185 1.93736 72.1144 1.58047 72.2823C1.22358 72.4502 0.903244 72.6867 0.637761 72.9784C0.101595 73.5674 -0.178612 74.3454 -0.141216 75.141C-0.103821 75.9367 0.248114 76.6849 0.837165 77.221C1.42622 77.7572 2.20413 78.0374 2.99978 78H74.9998C75.7954 78 76.5585 77.6839 77.1211 77.1213C77.6837 76.5587 77.9998 75.7956 77.9998 75C77.9998 74.2044 77.6837 73.4413 77.1211 72.8787C76.5585 72.3161 75.7954 72 74.9998 72V54C74.9998 49.032 70.9678 45 65.9998 45H11.9998ZM14.9998 57C14.9998 58.5913 15.6319 60.1174 16.7571 61.2426C17.8824 62.3679 19.4085 63 20.9998 63C22.5911 63 24.1172 62.3679 25.2424 61.2426C26.3676 60.1174 26.9998 58.5913 26.9998 57C26.9998 58.5913 27.6319 60.1174 28.7571 61.2426C29.8824 62.3679 31.4085 63 32.9998 63C34.5911 63 36.1172 62.3679 37.2424 61.2426C38.3676 60.1174 38.9998 58.5913 38.9998 57C38.9998 58.5913 39.6319 60.1174 40.7571 61.2426C41.8824 62.3679 43.4085 63 44.9998 63C46.5911 63 48.1172 62.3679 49.2424 61.2426C50.3676 60.1174 50.9998 58.5913 50.9998 57C50.9998 58.5913 51.6319 60.1174 52.7571 61.2426C53.8824 62.3679 55.4085 63 56.9998 63C58.5911 63 60.1172 62.3679 61.2424 61.2426C62.3676 60.1174 62.9998 58.5913 62.9998 57C62.9998 58.5913 63.6319 60.1174 64.7571 61.2426C65.8824 62.3679 67.4085 63 68.9998 63V72H8.99978V63C10.5911 63 12.1172 62.3679 13.2424 61.2426C14.3676 60.1174 14.9998 58.5913 14.9998 57Z" fill="#931158"/>
</g>
<defs>
<clipPath id="clip0_238_4559">
<rect width="78" height="78" fill="white"/>
</clipPath>
</defs>
</svg>
